<?xml version="1.0" encoding="UTF-8"?>
<svg width="411px" height="167px" viewBox="0 0 411 167" version="1.1" xmlns="http://www.w3.org/2000/svg" xmlns:xlink="http://www.w3.org/1999/xlink">
    <!-- Generator: Sketch 58 (84663) - https://sketch.com -->
    <title>Untitled</title>
    <desc>Created with Sketch.</desc>
    <g id="Page-1" stroke="none" stroke-width="1" fill="none" fill-rule="evenodd">
        <g id="film-solid" transform="translate(17.000000, 17.000000)" fill="#0ED6D0" fill-rule="nonzero">
            <path d="M170.371094,0 L167.578125,0 L167.578125,6.96614583 C167.578125,9.26497396 165.692871,11.1458333 163.388672,11.1458333 L149.423828,11.1458333 C147.119629,11.1458333 145.234375,9.26497396 145.234375,6.96614583 L145.234375,0 L33.515625,0 L33.515625,6.96614583 C33.515625,9.26497396 31.6303711,11.1458333 29.3261719,11.1458333 L15.3613281,11.1458333 C13.0571289,11.1458333 11.171875,9.26497396 11.171875,6.96614583 L11.171875,0 L8.37890625,0 C3.7355957,0 0,3.72688802 0,8.359375 L0,125.390625 C0,130.023112 3.7355957,133.75 8.37890625,133.75 L11.171875,133.75 L11.171875,126.783854 C11.171875,124.485026 13.0571289,122.604167 15.3613281,122.604167 L29.3261719,122.604167 C31.6303711,122.604167 33.515625,124.485026 33.515625,126.783854 L33.515625,133.75 L145.234375,133.75 L145.234375,126.783854 C145.234375,124.485026 147.119629,122.604167 149.423828,122.604167 L163.388672,122.604167 C165.692871,122.604167 167.578125,124.485026 167.578125,126.783854 L167.578125,133.75 L170.371094,133.75 C175.014404,133.75 178.75,130.023112 178.75,125.390625 L178.75,8.359375 C178.75,3.72688802 175.014404,0 170.371094,0 Z M33.9876761,107.533744 C33.9876761,109.86495 32.0758693,111.7723 29.7392165,111.7723 L15.5776849,111.7723 C13.2410321,111.7723 11.3292254,109.86495 11.3292254,107.533744 L11.3292254,93.405223 C11.3292254,91.074017 13.2410321,89.1666667 15.5776849,89.1666667 L29.7392165,89.1666667 C32.0758693,89.1666667 33.9876761,91.074017 33.9876761,93.405223 L33.9876761,107.533744 Z M33.9876761,73.7430311 C33.9876761,76.0094814 32.0758693,77.8638498 29.7392165,77.8638498 L15.5776849,77.8638498 C13.2410321,77.8638498 11.3292254,76.0094814 11.3292254,73.7430311 L11.3292254,60.0069689 C11.3292254,57.7405186 13.2410321,55.8861502 15.5776849,55.8861502 L29.7392165,55.8861502 C32.0758693,55.8861502 33.9876761,57.7405186 33.9876761,60.0069689 L33.9876761,73.7430311 Z M33.9876761,40.4625147 C33.9876761,42.7289649 32.0758693,44.5833333 29.7392165,44.5833333 L15.5776849,44.5833333 C13.2410321,44.5833333 11.3292254,42.7289649 11.3292254,40.4625147 L11.3292254,26.7264525 C11.3292254,24.4600022 13.2410321,22.6056338 15.5776849,22.6056338 L29.7392165,22.6056338 C32.0758693,22.6056338 33.9876761,24.4600022 33.9876761,26.7264525 L33.9876761,40.4625147 Z M128.397887,113.216549 C128.397887,115.530487 126.516427,117.423709 124.216864,117.423709 L54.5331363,117.423709 C52.2335733,117.423709 50.3521127,115.530487 50.3521127,113.216549 L50.3521127,79.5592723 C50.3521127,77.2453345 52.2335733,75.3521127 54.5331363,75.3521127 L124.216864,75.3521127 C126.516427,75.3521127 128.397887,77.2453345 128.397887,79.5592723 L128.397887,113.216549 Z M128.397887,54.1907277 C128.397887,56.5046655 126.516427,58.3978873 124.216864,58.3978873 L54.5331363,58.3978873 C52.2335733,58.3978873 50.3521127,56.5046655 50.3521127,54.1907277 L50.3521127,20.5334507 C50.3521127,18.2195129 52.2335733,16.3262911 54.5331363,16.3262911 L124.216864,16.3262911 C126.516427,16.3262911 128.397887,18.2195129 128.397887,20.5334507 L128.397887,54.1907277 Z M168.050176,107.533744 C168.050176,109.86495 166.138369,111.7723 163.801717,111.7723 L149.640185,111.7723 C147.303532,111.7723 145.391725,109.86495 145.391725,107.533744 L145.391725,93.405223 C145.391725,91.074017 147.303532,89.1666667 149.640185,89.1666667 L163.801717,89.1666667 C166.138369,89.1666667 168.050176,91.074017 168.050176,93.405223 L168.050176,107.533744 Z M168.050176,73.7430311 C168.050176,76.0094814 166.138369,77.8638498 163.801717,77.8638498 L149.640185,77.8638498 C147.303532,77.8638498 145.391725,76.0094814 145.391725,73.7430311 L145.391725,60.0069689 C145.391725,57.7405186 147.303532,55.8861502 149.640185,55.8861502 L163.801717,55.8861502 C166.138369,55.8861502 168.050176,57.7405186 168.050176,60.0069689 L168.050176,73.7430311 Z M168.050176,40.4625147 C168.050176,42.7289649 166.138369,44.5833333 163.801717,44.5833333 L149.640185,44.5833333 C147.303532,44.5833333 145.391725,42.7289649 145.391725,40.4625147 L145.391725,26.7264525 C145.391725,24.4600022 147.303532,22.6056338 149.640185,22.6056338 L163.801717,22.6056338 C166.138369,22.6056338 168.050176,24.4600022 168.050176,26.7264525 L168.050176,40.4625147 Z" id="Shape"></path>
        </g>
        <text id="Movie" font-family="AmericanTypewriter, American Typewriter" font-size="62.5" font-weight="normal" fill="#0ED6D0">
            <tspan x="211.375" y="74">Movie</tspan>
        </text>
        <text id="Critic" font-family="AmericanTypewriter, American Typewriter" font-size="62.5" font-weight="normal" fill="#0ED6D0">
            <tspan x="211.4375" y="135">Critic</tspan>
        </text>
    </g>
</svg>